<?xml version="1.0" standalone="no"?>
<!DOCTYPE svg PUBLIC "-//W3C//DTD SVG 20010904//EN"
 "http://www.w3.org/TR/2001/REC-SVG-20010904/DTD/svg10.dtd">
<svg version="1.0" xmlns="http://www.w3.org/2000/svg"
 width="175.000000pt" height="47.000000pt" viewBox="0 0 175.000000 47.000000"
 preserveAspectRatio="xMidYMid meet">

<g transform="translate(0.000000,47.000000) scale(0.100000,-0.100000)"
fill="#000000" stroke="none">
<path d="M85 418 c-30 -16 -45 -39 -45 -70 0 -35 31 -63 92 -84 46 -15 78 -44
78 -72 0 -7 -11 -24 -25 -37 -28 -29 -79 -33 -113 -9 -19 13 -22 13 -22 0 0
-21 69 -40 114 -32 66 13 99 92 55 132 -11 10 -48 33 -82 49 -68 33 -83 61
-51 96 20 22 92 27 112 7 9 -9 12 -8 12 4 0 27 -85 38 -125 16z"/>
<path d="M882 414 c-45 -23 -83 -75 -89 -122 -15 -115 89 -204 201 -174 38 10
42 9 84 -29 85 -74 205 -78 280 -10 15 14 21 21 12 14 -30 -23 -89 -43 -127
-43 -43 0 -131 38 -162 69 l-21 21 25 36 c49 72 28 172 -47 227 -36 27 -114
32 -156 11z m138 -24 c58 -41 78 -145 41 -206 -25 -40 -83 -68 -126 -60 -71
14 -125 102 -111 180 4 20 22 51 40 71 29 30 39 35 81 35 31 0 56 -7 75 -20z"/>
<path d="M1440 421 c-12 -5 -15 -32 -15 -159 0 -145 1 -152 20 -152 19 0 20 6
17 107 -5 202 -6 211 -22 204z"/>
<path d="M310 312 c-13 -2 -14 -16 -9 -84 5 -68 9 -84 28 -100 27 -21 71 -24
90 -5 11 9 14 10 18 0 3 -7 12 -13 21 -13 15 0 17 12 14 104 -3 92 -5 103 -20
99 -14 -3 -17 -15 -14 -77 4 -80 -9 -106 -52 -106 -37 0 -51 27 -56 109 -4 61
-8 76 -20 73z"/>
<path d="M560 313 c-12 -3 -15 -23 -15 -103 0 -93 1 -100 20 -100 19 0 20 6
17 79 -3 73 -2 80 19 95 31 22 55 20 80 -5 18 -18 20 -30 17 -95 -3 -68 -1
-74 17 -74 19 0 20 5 14 77 -3 43 -9 85 -13 94 -14 32 -84 50 -116 29 -8 -5
-17 -6 -20 -2 -3 5 -12 6 -20 5z"/>
<path d="M1190 312 c-13 -2 -14 -16 -9 -84 5 -68 9 -84 28 -100 27 -21 71 -24
90 -5 11 9 14 10 18 0 3 -7 12 -13 21 -13 15 0 17 12 14 104 -3 92 -5 103 -20
99 -14 -3 -17 -15 -14 -77 4 -80 -9 -106 -52 -106 -37 0 -51 27 -56 109 -4 61
-8 76 -20 73z"/>
<path d="M1545 312 c-6 -4 -10 -68 -10 -155 0 -140 1 -147 20 -147 18 0 20 5
17 61 -4 57 -2 61 15 54 60 -25 103 -11 128 42 42 87 -45 186 -126 143 -13 -7
-19 -7 -19 0 0 12 -11 13 -25 2z m123 -34 c53 -58 27 -158 -42 -158 -33 0 -56
38 -56 92 0 82 50 116 98 66z"/>
</g>
</svg>
